<?xml version="1.0" standalone="no"?>
<!DOCTYPE svg PUBLIC "-//W3C//DTD SVG 20010904//EN"
 "http://www.w3.org/TR/2001/REC-SVG-20010904/DTD/svg10.dtd">
<svg version="1.0" xmlns="http://www.w3.org/2000/svg"
 width="500.000000pt" height="500.000000pt" viewBox="0 0 500.000000 500.000000"
 preserveAspectRatio="xMidYMid meet">

<g transform="translate(0.000000,500.000000) scale(0.100000,-0.100000)"
fill="#000000" stroke="none">
<path d="M2385 3739 c-303 -47 -543 -250 -642 -544 -25 -74 -27 -92 -27 -240
0 -152 2 -164 31 -247 93 -266 294 -451 563 -519 72 -18 103 -21 220 -16 148
5 201 18 315 73 203 99 361 292 421 514 27 99 25 301 -4 403 -80 280 -304 499
-574 562 -84 19 -229 26 -303 14z m291 -79 c209 -53 385 -198 479 -395 49
-101 68 -191 67 -315 -1 -317 -198 -583 -507 -687 -72 -24 -94 -27 -220 -27
-127 0 -148 3 -220 28 -199 69 -337 191 -430 381 -200 411 26 895 475 1016 93
25 254 25 356 -1z"/>
<path d="M2162 3462 l-233 -147 3 -130 c3 -130 3 -130 45 -216 79 -162 161
-247 275 -285 l50 -16 56 38 c78 53 256 232 331 331 59 79 120 132 169 147 20
7 22 14 22 71 l0 63 -52 33 c-29 17 -63 38 -76 47 -21 14 -23 13 -40 -24 l-17
-39 -3 113 -3 112 -39 0 c-38 0 -40 -2 -40 -30 0 -16 -5 -30 -11 -30 -6 0 -50
25 -98 55 -48 30 -91 55 -96 54 -6 0 -115 -67 -243 -147z m228 -257 l0 -55
-55 0 -55 0 0 55 0 55 55 0 55 0 0 -55z m140 0 l0 -55 -50 0 -50 0 0 55 0 55
50 0 50 0 0 -55z m-142 -142 l3 -53 -55 0 -56 0 0 48 c0 27 3 52 7 56 4 4 28
6 53 4 l45 -3 3 -52z m142 2 l0 -55 -50 0 -50 0 0 55 0 55 50 0 50 0 0 -55z"/>
<path d="M2908 3146 c-61 -16 -124 -66 -179 -140 -66 -91 -233 -260 -322 -327
-98 -74 -217 -135 -308 -158 -38 -10 -71 -20 -74 -23 -3 -3 18 -27 47 -52 102
-91 281 -156 426 -156 244 0 479 143 590 359 42 83 76 207 70 260 -3 31 -3 30
-61 -44 -97 -126 -229 -222 -369 -269 -107 -36 -125 -32 -48 10 146 81 243
162 323 267 60 78 125 197 129 237 3 22 -3 26 -42 37 -59 15 -123 15 -182 -1z"/>
<path d="M1844 3085 c-14 -77 -9 -223 9 -295 19 -72 84 -209 103 -217 23 -9
158 18 209 41 l50 23 -45 23 c-99 51 -207 193 -270 355 -51 131 -47 126 -56
70z"/>
<path d="M1636 1938 c-34 -19 -5 -61 35 -51 12 3 19 14 19 28 0 26 -28 38 -54
23z"/>
<path d="M1500 1795 l0 -145 35 0 35 0 0 145 0 145 -35 0 -35 0 0 -145z"/>
<path d="M2000 1795 l0 -145 34 0 c32 0 35 3 38 32 4 45 28 46 56 3 19 -30 27
-35 62 -35 l41 0 -41 60 -41 60 37 45 36 45 -40 0 c-37 0 -44 -4 -74 -46 l-33
-46 -3 86 -3 86 -34 0 -35 0 0 -145z"/>
<path d="M2360 1795 l0 -145 35 0 35 0 0 69 c0 72 14 99 45 87 12 -4 15 -23
15 -81 l0 -75 35 0 35 0 0 83 c0 103 -13 127 -70 127 -21 0 -42 -4 -45 -10
-14 -23 -22 -7 -17 40 l5 50 -37 0 -36 0 0 -145z"/>
<path d="M1620 1755 l0 -105 35 0 35 0 0 105 0 105 -35 0 -35 0 0 -105z"/>
<path d="M1750 1755 l0 -105 35 0 35 0 0 69 c0 72 14 99 45 87 12 -4 15 -23
15 -81 l0 -75 35 0 35 0 0 83 c0 101 -14 127 -66 127 -20 0 -45 -5 -57 -11
-16 -9 -22 -9 -25 0 -2 6 -15 11 -28 11 -24 0 -24 -1 -24 -105z"/>
<path d="M2643 1845 c-55 -39 -51 -150 7 -180 80 -41 160 3 160 90 0 65 -39
105 -102 105 -24 0 -53 -7 -65 -15z m91 -51 c9 -22 7 -67 -3 -82 -26 -41 -74
27 -52 74 12 27 46 32 55 8z"/>
<path d="M2860 1772 c0 -73 3 -92 18 -105 23 -21 71 -22 99 -2 19 13 22 13 27
0 3 -8 17 -15 31 -15 l25 0 0 105 0 105 -35 0 -35 0 0 -63 c0 -69 -16 -104
-44 -94 -13 5 -16 21 -16 82 l0 75 -35 0 -35 0 0 -88z"/>
<path d="M3130 1840 c-37 -37 -21 -79 40 -104 57 -23 52 -40 -10 -33 -47 6
-50 5 -50 -17 0 -28 16 -36 74 -36 60 0 88 23 84 68 -3 32 -9 40 -45 60 -54
30 -56 46 -4 37 31 -5 40 -3 45 11 9 24 -10 34 -66 34 -35 0 -54 -6 -68 -20z"/>
<path d="M3343 1836 c-25 -21 -28 -31 -28 -81 0 -50 3 -60 28 -81 21 -18 40
-24 77 -24 63 0 80 7 80 35 0 21 -3 22 -45 17 -43 -4 -75 8 -75 29 0 5 29 9
65 9 l65 0 0 35 c0 53 -36 85 -94 85 -33 0 -52 -6 -73 -24z m95 -28 c20 -20
14 -28 -23 -28 -33 0 -35 2 -25 20 12 23 30 26 48 8z"/>
</g>
</svg>
